<?xml version="1.0" encoding="UTF-8"?>
<svg version="1.1" xmlns="http://www.w3.org/2000/svg" width="1024" height="949">
<path d="M0 0 C2.49127621 -0.00230978 4.98255174 -0.00548975 7.47382587 -0.00945449 C12.84949268 -0.01601908 18.22510647 -0.01650012 23.60077095 -0.01136017 C31.59504929 -0.00373751 39.58929415 -0.00769232 47.58357233 -0.01377678 C61.86812341 -0.02426555 76.15265651 -0.02341263 90.43720926 -0.01761896 C102.93775505 -0.01257417 115.43829427 -0.0112808 127.93884087 -0.01366425 C128.77024808 -0.01381702 129.6016553 -0.01396979 130.45825667 -0.01412719 C133.83378093 -0.01474993 137.20930518 -0.01538674 140.58482942 -0.01604671 C172.2043252 -0.02215507 203.82380957 -0.01663301 235.44330358 -0.00585292 C263.49499963 0.00363809 291.54667752 0.00278718 319.59837341 -0.0067749 C351.1640909 -0.01749903 382.72979833 -0.02172263 414.29551739 -0.01555037 C417.6643368 -0.014909 421.03315621 -0.01428332 424.40197563 -0.01366425 C425.6460769 -0.01342701 425.6460769 -0.01342701 426.91531154 -0.01318499 C439.40436495 -0.01091626 451.89341106 -0.01355894 464.38246346 -0.01862335 C478.59153201 -0.02435675 492.80057989 -0.02288054 507.00964589 -0.01206186 C514.9482395 -0.0062158 522.88678826 -0.00576734 530.82538065 -0.01335421 C536.77128834 -0.01840691 542.71715706 -0.01287522 548.6630603 -0.00340506 C551.05441526 -0.0011869 553.44577628 -0.0022713 555.83712728 -0.00715664 C574.25777963 -0.04187641 592.62709452 0.59732902 610.72850037 4.31646729 C611.75362732 4.52634277 612.77875427 4.73621826 613.83494568 4.95245361 C667.15347031 16.50856263 713.03985807 47.53029808 742.87400818 93.1987915 C771.52468056 138.11572323 778.43311097 196.01964962 767.27928162 247.64459229 C764.61157193 259.17572263 761.27859281 270.37778784 756.60350037 281.25396729 C756.31781189 281.92943604 756.03212341 282.60490479 755.73777771 283.30084229 C746.590352 304.6497775 732.93020276 323.14364345 716.93748474 339.85699463 C715.79991363 341.04827975 714.67671813 342.25326493 713.55662537 343.46099854 C679.29218974 379.40937011 625.72308615 398.6808364 576.87022351 400.34719887 C574.14775778 400.38288621 571.42688353 400.39053952 568.70419121 400.38539505 C567.67160338 400.38744768 566.63901556 400.38950032 565.5751372 400.39161515 C562.1345366 400.39724422 558.69397655 400.39583299 555.25337219 400.39440918 C552.75366645 400.39699518 550.25396113 400.40000899 547.75425637 400.40341258 C541.61708496 400.41061609 535.47992608 400.41318387 529.34275095 400.41374164 C521.9863735 400.41465873 514.63000401 400.42133653 507.27363001 400.42808846 C489.49606992 400.44411654 471.71851073 400.45004842 453.94094471 400.45483721 C445.52231962 400.45717668 437.10369521 400.46077975 428.68507065 400.46453259 C399.83837186 400.47736619 370.99167343 400.4880848 342.14497185 400.49153519 C340.33553187 400.49175682 338.5260919 400.4919786 336.71665192 400.49220054 C334.90296583 400.49242118 333.08927973 400.49264166 331.27559364 400.49286199 C327.63733729 400.49330452 323.99908094 400.49375164 320.36082458 400.49420166 C319.4587546 400.49431105 318.55668461 400.49442044 317.62727917 400.49453315 C288.40009845 400.49816102 259.17294257 400.51407185 229.94577136 400.53739202 C199.00844419 400.56203134 168.07113121 400.57570995 137.13379395 400.5769031 C133.73243149 400.57707454 130.33106903 400.57728997 126.92970657 400.57753754 C125.67353984 400.57762119 125.67353984 400.57762119 124.391996 400.57770653 C110.95983051 400.5788535 97.52769067 400.58984531 84.09553382 400.60442459 C70.57339512 400.61884682 57.05128903 400.62199446 43.52914475 400.61398461 C35.51386661 400.60955499 27.49869432 400.61328093 19.48343026 400.62922312 C13.47113125 400.640236 7.45895045 400.63524872 1.44664671 400.62445125 C-0.96528655 400.62250931 -3.3772307 400.62550194 -5.7891487 400.63429561 C-26.41059061 400.70464146 -47.35932154 399.71835233 -67.39649963 394.44146729 C-68.42517151 394.17994873 -69.45384338 393.91843018 -70.51368713 393.64898682 C-73.48305096 392.87841469 -76.44087524 392.07549369 -79.39649963 391.25396729 C-80.19958557 391.034021 -81.00267151 390.81407471 -81.83009338 390.58746338 C-102.4013586 384.79845265 -122.07017267 374.68080687 -139.39649963 362.25396729 C-139.9831842 361.83405518 -140.56986877 361.41414307 -141.17433167 360.98150635 C-149.44993725 354.98374072 -157.01038395 348.29630043 -164.39649963 341.25396729 C-165.17638245 340.52693604 -165.95626526 339.79990479 -166.75978088 339.05084229 C-202.21203105 305.04690784 -219.17829391 256.09606917 -220.68165588 207.84381104 C-221.35336015 170.80445992 -214.86767499 136.0040856 -197.39649963 103.25396729 C-197.07423401 102.64279053 -196.75196838 102.03161377 -196.41993713 101.4019165 C-191.58399273 92.302576 -185.93550813 84.18193539 -179.39649963 76.25396729 C-178.91632385 75.67082764 -178.43614807 75.08768799 -177.94142151 74.48687744 C-167.53051996 61.92796394 -156.46095691 51.02955331 -143.39649963 41.25396729 C-142.56505432 40.62748291 -141.73360901 40.00099854 -140.87696838 39.35552979 C-116.70893208 21.81620531 -88.77182768 10.29405683 -59.58399963 4.31646729 C-58.22951721 4.03573364 -58.22951721 4.03573364 -56.84767151 3.74932861 C-38.08343136 0.22527263 -19.02494933 -0.03890619 0 0 Z M484.88865662 113.96099854 C461.84761479 137.7633261 450.06611513 169.70869907 450.45506287 202.69146729 C451.94185412 238.3744573 466.47178134 269.66670564 492.54100037 294.06646729 C514.18236841 312.6062544 540.87271071 324.79980155 569.60350037 326.25396729 C570.58834412 326.30681885 571.57318787 326.35967041 572.58787537 326.41412354 C605.9970426 327.3160142 637.63849339 314.84976062 661.97850037 292.13287354 C685.71581895 269.46573281 700.97424559 238.5384567 701.80662537 205.38287354 C702.24226923 169.09759959 691.93553177 138.84437951 666.54881287 112.20318604 C642.2519886 87.45702574 609.64984769 74.5927316 575.18992615 74.22662354 C539.94914887 74.5991898 509.57687346 89.34382691 484.88865662 113.96099854 Z " fill="#333333" transform="translate(236.39649963378906,532.7460327148438)"/>
<path d="M0 0 C2.33898892 -0.00258684 4.6779774 -0.00560089 7.01696527 -0.0090034 C12.75276231 -0.01619861 18.48854822 -0.0187742 24.22434945 -0.01933246 C31.10118456 -0.0202505 37.97801118 -0.02693107 44.85484261 -0.03367928 C61.47226539 -0.04969761 78.0896872 -0.05563811 94.70711632 -0.06042803 C102.57818428 -0.06276847 110.44925152 -0.06637164 118.32031892 -0.07012341 C145.29717151 -0.08295612 172.27402371 -0.09367482 199.25087929 -0.09712601 C200.94261874 -0.09734763 202.63435818 -0.09756942 204.32609763 -0.09779136 C206.02177713 -0.09801199 207.71745663 -0.09823248 209.41313612 -0.09845281 C212.81459848 -0.09889534 216.21606084 -0.09934246 219.61752319 -0.09979248 C220.46088067 -0.09990187 221.30423815 -0.10001126 222.17315191 -0.10012397 C249.49509004 -0.10375145 276.81700158 -0.11966128 304.13892953 -0.14298284 C333.0677914 -0.16763062 361.9966381 -0.18130116 390.92551076 -0.18249393 C394.10697071 -0.18266536 397.28843065 -0.18288078 400.46989059 -0.18312836 C401.25317829 -0.18318413 402.03646599 -0.18323989 402.84348968 -0.18329735 C415.39857089 -0.18444358 427.95362461 -0.19542898 440.50869657 -0.21001541 C453.15136829 -0.22444853 465.79400513 -0.22757923 478.43668284 -0.21957543 C485.27340346 -0.2155372 492.11002713 -0.21650764 498.94673729 -0.23063278 C505.22431912 -0.2434832 511.50174154 -0.24207773 517.7793235 -0.23004207 C520.03175726 -0.22810416 522.28420275 -0.23107342 524.5366201 -0.23988643 C589.90289237 -0.47913289 650.37773318 20.84989849 697.20443726 67.01544189 C738.84469238 108.85410205 757.35007279 165.6277219 757.32867432 223.8409729 C757.13033005 260.63302343 749.71500105 296.69108552 732.01693726 329.14044189 C731.5378894 330.0361792 731.5378894 330.0361792 731.04916382 330.95001221 C704.19618396 380.97561427 657.59562776 416.07416032 604.01693726 433.14044189 C603.26831421 433.37891846 602.51969116 433.61739502 601.74838257 433.86309814 C582.73308659 439.79214366 562.6795836 443.31095302 542.74577808 443.27186966 C541.26232371 443.27494861 541.26232371 443.27494861 539.74890056 443.27808976 C536.44466347 443.28373104 533.14046845 443.28230607 529.83622742 443.28088379 C527.4392297 443.28346908 525.04223241 443.2864827 522.64523572 443.28988719 C516.75444398 443.29709759 510.86366065 443.29965889 504.97286553 443.30021625 C497.9131289 443.30113255 490.85340058 443.30780807 483.79366754 443.31456307 C466.73175405 443.33059934 449.66984148 443.336524 432.60792181 443.34131182 C424.52959844 443.34365051 416.45127577 443.34725349 408.37295295 443.3510072 C380.69730971 443.36384164 353.02166685 443.37456009 325.3460207 443.3780098 C323.60967704 443.37823143 321.87333338 443.37845321 320.13698972 443.37867515 C318.39654719 443.37889579 316.65610465 443.37911627 314.91566211 443.3793366 C311.42427401 443.37977914 307.9328859 443.38022626 304.4414978 443.38067627 C303.14301235 443.38084036 303.14301235 443.38084036 301.81829487 443.38100776 C273.76932346 443.38463583 245.72037794 443.40054699 217.67141645 443.42386663 C187.98777026 443.44850002 158.30413885 443.46218429 128.62048215 443.46337771 C125.35760096 443.46354916 122.09471979 443.46376458 118.83183861 443.46401215 C118.02847761 443.46406791 117.22511661 443.46412368 116.39741134 443.46418114 C103.50570587 443.46532864 90.61402709 443.47632505 77.72233061 443.4908992 C64.74666058 443.5053138 51.77102453 443.50847333 38.79534868 443.50045922 C31.10160716 443.49602601 23.40797584 443.49977024 15.71424895 443.51569773 C9.94655467 443.52669508 4.17895707 443.52173444 -1.58873353 443.51092586 C-3.90511534 443.50898107 -6.22150844 443.51199014 -8.53787442 443.52077022 C-67.05325054 443.72832857 -126.10445009 424.22776551 -168.40737915 382.68096924 C-170.06458173 381.06074174 -171.74719969 379.46990237 -173.43228149 377.87872314 C-212.89301903 340.12633686 -233.73403237 286.2147075 -235.19046021 232.11091614 C-236.51158431 168.09838391 -217.17187515 112.31124977 -173.39321899 65.36309814 C-127.58636105 18.39840493 -63.96874573 -0.02837978 0 0 Z M-44.67056274 78.39044189 C-45.54664185 78.60950195 -46.42272095 78.82856201 -47.3253479 79.05426025 C-68.38107966 84.49388164 -89.33328765 94.01407464 -105.98306274 108.14044189 C-107.15174285 109.09819442 -108.32105113 110.05518078 -109.49087524 111.01153564 C-139.39168735 135.73606037 -156.79385795 169.74603032 -160.67056274 208.20294189 C-163.31794723 248.74101677 -152.55997401 285.9004208 -125.72915649 316.73028564 C-123.5090397 319.22838661 -121.25729078 321.69159306 -118.98306274 324.14044189 C-118.43263306 324.74501221 -117.88220337 325.34958252 -117.31509399 325.97247314 C-108.38403683 335.38867415 -97.21002467 342.78021346 -85.98306274 349.14044189 C-85.12067993 349.63109131 -85.12067993 349.63109131 -84.24087524 350.13165283 C-62.38197471 362.36165995 -37.13851487 369.32230666 -12.09206676 369.27186966 C-11.13205459 369.27392229 -10.17204242 369.27597493 -9.18293896 369.27808976 C-5.97121486 369.28373697 -2.75953396 369.28230533 0.45219421 369.28088379 C2.78034536 369.28346874 5.10849607 369.28648226 7.43664616 369.28988719 C13.16093311 369.29710092 18.8852089 369.29965908 24.60950006 369.30021625 C31.46899987 369.30113217 38.32849111 369.30780653 45.18798721 369.31456307 C61.76593563 369.33060288 78.3438831 369.3365243 94.92183788 369.34131182 C102.76971997 369.34365004 110.61760133 369.34725297 118.46548284 369.3510072 C145.34751592 369.36384163 172.22954859 369.37456034 199.11158466 369.3780098 C200.79827218 369.37823143 202.48495969 369.37845321 204.1716472 369.37867515 C205.86233253 369.37889579 207.55301786 369.37911627 209.24370319 369.3793366 C212.63531832 369.37977914 216.02693345 369.38022626 219.41854858 369.38067627 C220.67992829 369.38084036 220.67992829 369.38084036 221.96679042 369.38100776 C249.2188838 369.38463644 276.47095054 369.40054993 303.72303373 369.42386663 C332.55820653 369.44849255 361.39336413 369.46218394 390.22854775 369.46337771 C393.39730625 369.46354916 396.56606474 369.46376458 399.73482323 369.46401215 C400.90511754 369.4640958 400.90511754 369.4640958 402.09905416 369.46418114 C414.62598299 369.46532925 427.15288438 369.47633089 439.67980396 369.4908992 C452.28475574 369.50530413 464.88967255 369.50847872 477.49463031 369.50045922 C484.31627904 369.49641033 491.13783049 369.49744125 497.95946884 369.51151657 C504.21525607 369.52430583 510.47088289 369.52301394 516.72667005 369.51092586 C518.97909882 369.50897754 521.23153916 369.51200684 523.48395173 369.52077022 C568.83444832 369.68591614 609.37812933 355.33348329 642.01693726 323.14044189 C669.38034771 295.78624471 682.61813654 260.59667859 683.26693726 222.20294189 C682.6846104 185.51634996 671.21899922 152.47818073 646.05990601 125.39434814 C644.64141116 123.82939303 643.28095689 122.21063464 641.97006226 120.55450439 C639.0339726 116.92549758 635.61105068 114.10199136 632.01693726 111.14044189 C631.07721069 110.36313721 630.13748413 109.58583252 629.16928101 108.78497314 C620.99604618 102.18246922 612.33757159 96.96062896 603.01693726 92.14044189 C602.34146851 91.78707764 601.66599976 91.43371338 600.97006226 91.06964111 C573.55070082 76.89555804 545.15867687 73.98301063 514.74568176 74.00672913 C512.47197608 74.0048593 510.19827071 74.00255792 507.92456585 73.9998638 C501.69468731 73.99376052 495.46482221 73.99387767 489.23494136 73.99505818 C483.20016835 73.99524155 477.16539986 73.99074663 471.13062882 73.98644529 C457.26775414 73.97679002 443.40488317 73.97396172 429.54200553 73.97338823 C418.83259455 73.9729281 408.12318501 73.97086669 397.41377449 73.96768761 C394.32732314 73.96679001 391.24087179 73.9659002 388.15442044 73.96501273 C387.38704257 73.96479168 386.6196647 73.96457063 385.82903296 73.96434289 C364.25275662 73.95819126 342.67648077 73.95424206 321.10020351 73.95468616 C320.28723599 73.95470174 319.47426847 73.95471732 318.63666557 73.95473337 C314.51653158 73.95481648 310.39639758 73.95491552 306.27626359 73.95501808 C305.04893078 73.955048 305.04893078 73.955048 303.79680338 73.95507852 C302.14215973 73.95511896 300.48751608 73.95516076 298.83287243 73.95520391 C273.09889294 73.95581644 247.36492664 73.94831321 221.63095093 73.93463135 C192.69488781 73.91925325 163.75883335 73.91066617 134.82276589 73.91159457 C131.73411405 73.9116692 128.64546222 73.91171791 125.55681038 73.91174889 C124.41612034 73.91176637 124.41612034 73.91176637 123.25238606 73.9117842 C111.04250498 73.91181491 98.83263539 73.90544337 86.62275772 73.89681662 C74.33969345 73.88831799 62.0566459 73.88736744 49.77358031 73.89392594 C43.12623208 73.8972844 36.47891639 73.8972686 29.83156967 73.88857269 C23.73635267 73.88068135 17.64120978 73.88216596 11.54599453 73.89085682 C9.35087459 73.89238603 7.15574904 73.89059774 4.96063571 73.88499675 C-11.70508661 73.845318 -28.42894962 74.24874674 -44.67056274 78.39044189 Z " fill="#333333" transform="translate(250.98306274414063,15.85955810546875)"/>
<path d="M0 0 C21.41923064 18.71680434 36.78177501 43.80523011 39.30029297 72.62109375 C41.59937673 108.41558294 33.36287023 139.22487443 9.50561523 166.47485352 C-9.04738253 187.13952096 -35.58537859 202.5111126 -63.78588867 204.0559082 C-100.43604292 204.73406439 -131.06936753 197.24272634 -158.22314453 171.61328125 C-171.75395989 158.39126946 -180.84573062 142.4575451 -186.9296875 124.62890625 C-187.16848633 123.93313477 -187.40728516 123.23736328 -187.65332031 122.52050781 C-191.24418381 111.37376077 -191.91785993 100.27928301 -191.8671875 88.62890625 C-191.86470001 87.94437378 -191.86221252 87.25984131 -191.85964966 86.55456543 C-191.68009834 54.60469158 -179.7116206 27.72643723 -157.8046875 4.69140625 C-114.56703913 -36.84128754 -45.75973518 -37.99317462 0 0 Z " fill="#333333" transform="translate(320.5546875,149.12109375)"/>
</svg>
