<?xml version="1.0" encoding="UTF-8"?>
<svg version="1.1" xmlns="http://www.w3.org/2000/svg" width="512" height="512">
<path d="M0 0 C9.27292149 3.75779893 17.23847126 4.33676286 26.77734375 1.203125 C27.45587402 0.98301758 28.1344043 0.76291016 28.83349609 0.53613281 C34.58034941 -1.35878272 40.24861193 -3.47251309 45.87304688 -5.70361328 C52.52226128 -8.29804974 58.61018821 -8.85310974 65.65234375 -8.859375 C66.72742188 -8.87774414 66.72742188 -8.87774414 67.82421875 -8.89648438 C80.9222051 -8.93194824 90.45357518 -2.99060907 99.83203125 5.78515625 C105.85243971 12.04599636 110.62121302 19.00940517 114.83984375 26.578125 C121.57554433 38.25130745 129.64055824 42.66012266 142.27734375 46.328125 C145.01737418 47.03925848 147.76990001 47.68831837 150.52734375 48.328125 C163.97321889 51.4560962 177.42269876 58.56899079 185.27734375 70.328125 C192.56111485 83.82333423 194.07462732 97.32777219 192.54296875 112.5234375 C191.29476931 125.70295515 193.11463181 135.65496574 201.27734375 146.328125 C202.90160078 148.11876934 204.54826337 149.88930324 206.21484375 151.640625 C217.21772376 163.41387408 224.2674601 178.37463461 223.72265625 194.71875 C221.83128979 210.04877285 214.13362676 222.5433243 203.71484375 233.61328125 C195.22875156 243.06493842 191.88920594 251.93662312 192.37109375 264.6328125 C192.49857564 266.82339286 192.63417933 269.01351365 192.77734375 271.203125 C193.6475805 288.573733 193.6475805 288.573733 191.27734375 297.328125 C190.96925781 298.49214844 190.66117187 299.65617187 190.34375 300.85546875 C186.4467724 313.49030615 178.63168461 321.77495201 167.27734375 328.328125 C160.36114302 331.90936247 153.15856252 333.97322808 145.65234375 335.890625 C130.94371669 339.65393147 122.38595239 343.25689998 114.36083984 356.71313477 C113.42603148 358.29681589 112.49146324 359.88063878 111.55712891 361.46459961 C104.11248246 373.87277021 93.92577004 384.74467788 80.27734375 390.328125 C63.34748882 393.81295645 48.08596497 389.87473641 32.42504883 383.41308594 C22.51051819 379.32434775 14.22943471 378.01076135 3.90234375 381.453125 C2.89337036 381.78328613 2.89337036 381.78328613 1.86401367 382.12011719 C-0.33598711 382.84344657 -2.52949118 383.58434368 -4.72265625 384.328125 C-7.15588859 385.14594361 -9.58964036 385.96217673 -12.02392578 386.77685547 C-13.58236384 387.30016156 -15.13940544 387.8276501 -16.69482422 388.35986328 C-27.90587622 392.16094859 -42.41566457 394.09483387 -53.42578125 388.72265625 C-66.07935789 381.04012757 -73.9278101 372.42782069 -81.65576172 360.03222656 C-91.62495648 344.10889031 -101.82486224 338.58998554 -119.84765625 334.390625 C-133.33298124 331.21361494 -146.83503653 324.13662545 -154.72265625 312.328125 C-162.00642735 298.83291577 -163.51993982 285.32847781 -161.98828125 270.1328125 C-160.74008181 256.95329485 -162.55994431 247.00128426 -170.72265625 236.328125 C-172.34691328 234.53748066 -173.99357587 232.76694676 -175.66015625 231.015625 C-186.66303626 219.24237592 -193.7127726 204.28161539 -193.16796875 187.9375 C-191.27660229 172.60747715 -183.57893926 160.1129257 -173.16015625 149.04296875 C-164.68756708 139.60635101 -161.33228277 130.73755349 -161.81640625 118.05859375 C-161.94396179 115.87713029 -162.07957249 113.69612501 -162.22265625 111.515625 C-163.03728812 95.30171254 -162.65696384 78.96131691 -151.53515625 65.953125 C-140.18685672 54.43711661 -126.75627129 49.38389051 -111.37060547 45.71704102 C-100.56638877 43.1258941 -92.67961771 40.07851225 -86.48535156 30.39355469 C-84.63036246 27.342242 -82.81668471 24.26730566 -81.00244141 21.19165039 C-73.55779496 8.78347979 -63.37108254 -2.08842788 -49.72265625 -7.671875 C-31.94150238 -11.28447255 -16.282054 -6.7714472 0 0 Z M-49.72265625 111.328125 C-50.53734375 112.00230469 -51.35203125 112.67648438 -52.19140625 113.37109375 C-67.05117053 126.01532088 -77.05500903 144.11523237 -78.94580078 163.63134766 C-80.27195008 183.83122056 -74.98237883 202.62214655 -61.66796875 218.1640625 C-61.02601563 218.87820313 -60.3840625 219.59234375 -59.72265625 220.328125 C-59.20445312 220.93914062 -58.68625 221.55015625 -58.15234375 222.1796875 C-46.82644569 234.64386677 -31.45024823 240.32554806 -14.94140625 241.53125 C2.39244496 241.8301095 18.49024529 237.24752749 31.27734375 225.328125 C40.41052022 216.31304995 44.26132061 204.74555047 44.71484375 192.015625 C44.49406723 183.68632884 43.07073495 173.39161558 37.96484375 166.578125 C33.69888199 163.00662213 29.83998207 160.96122513 24.21484375 161.390625 C19.5465271 162.24843947 16.03064935 164.13377048 13.01953125 167.90234375 C10.33848987 172.07389415 9.74047228 175.31732458 10.27734375 180.328125 C10.77234375 181.99875 10.77234375 181.99875 11.27734375 183.703125 C12.96495352 189.82071043 13.23192647 195.5764138 10.27734375 201.328125 C2.47592228 208.36688205 -5.98705326 209.81434543 -16.21484375 209.640625 C-24.37509283 208.91365404 -31.30534782 205.4847367 -36.72265625 199.328125 C-45.38562957 187.8915594 -47.83370684 177.6020388 -46.72265625 163.328125 C-44.91454556 152.40412292 -38.35335702 141.8759987 -29.77734375 134.94921875 C-23.01932303 130.3082684 -16.44429488 126.22800401 -8.72265625 123.328125 C-7.89894531 123.00972656 -7.07523437 122.69132812 -6.2265625 122.36328125 C9.33274974 117.22420856 26.55358194 119.97337465 41.04980469 126.91137695 C57.8451437 135.49961061 69.56162114 149.76231305 76.27734375 167.328125 C78.44285443 174.20531322 79.8516475 181.12998839 80.27734375 188.328125 C80.35662109 189.40707031 80.35662109 189.40707031 80.4375 190.5078125 C81.17810136 209.63464764 74.50035664 229.02571396 62.02734375 243.453125 C44.66853996 261.93837363 22.19172823 271.06012288 -2.828125 272.5078125 C-14.90948005 272.79508382 -26.00214555 270.64969511 -37.24267578 266.36083984 C-42.93154037 264.27470807 -48.89626131 262.97630114 -54.78613281 265.05712891 C-58.72703598 266.935164 -61.13325621 269.51104604 -63.06640625 273.40234375 C-64.63817388 278.01473329 -64.21023734 281.99369253 -62.53515625 286.578125 C-55.61597786 297.07618876 -40.48067322 299.11395432 -28.984375 301.53125 C2.93671352 307.71681254 35.73976872 301.90452599 63.03759766 284.18554688 C66.59635544 281.74003062 69.95241279 279.07962584 73.27734375 276.328125 C74.12554687 275.64363281 74.97375 274.95914063 75.84765625 274.25390625 C96.95924898 256.35206978 109.17414627 229.86457059 111.82763672 202.56958008 C113.88321199 176.90564592 107.3816588 149.46602138 91.27734375 129.015625 C71.63288207 105.97623119 48.90265224 90.53061708 18.1484375 87.625 C-5.75734761 85.79166027 -31.95550461 95.42934447 -49.72265625 111.328125 Z " fill="#333333" transform="translate(240.72265625,56.671875)"/>
</svg>
